<svg width="100" height="100" viewBox="0 0 100 100" fill="none" xmlns="http://www.w3.org/2000/svg">
  <rect width="100" height="100" rx="16" fill="#16D5FF"/>
  <path d="M48.02 52.68L47.81 64.44H49.63C52.2433 58.8867 54.6467 52.96 56.84 46.66C59.0333 40.3133 60.13 35.4833 60.13 32.17C60.13 30.8633 59.8733 29.6033 59.36 28.39C62.9067 25.9633 66.1733 24.75 69.16 24.75C73.8267 24.75 76.16 27.3867 76.16 32.66C76.16 35.2733 75.4367 38.5867 73.99 42.6C72.59 46.5667 70.49 51.56 67.69 57.58C64.89 63.5533 63.3967 66.7733 63.21 67.24L64.19 71.09C62.0433 72.8167 59.29 74.2867 55.93 75.5C52.57 76.6667 48.86 77.25 44.8 77.25C40.74 77.25 37.73 76.5967 35.77 75.29C33.81 73.9833 32.83 71.79 32.83 68.71L32.9 55.83C32.9 45.1433 31.5933 37.6067 28.98 33.22C27.7667 31.2133 26.2733 29.6033 24.5 28.39C27.6733 25.9633 31.3133 24.75 35.42 24.75C39.1533 24.75 41.93 26.22 43.75 29.16C45.57 32.0533 46.76 35.53 47.32 39.59C47.7867 43.2767 48.02 47.64 48.02 52.68Z" fill="#0B0F13"/>
</svg>
